<svg width="119" height="103" viewBox="0 0 119 103" fill="none" xmlns="http://www.w3.org/2000/svg">
<path d="M96.8364 92.2218C96.8364 92.2218 96.4694 90.305 95.1561 89.0281C93.8428 87.7512 92.2441 87.6125 91.0647 87.2529C90.2232 86.9494 89.4368 86.5175 88.7351 85.9732C88.7351 85.9732 90.1212 89.0876 90.9977 90.1635C91.8743 91.2393 93.0362 91.9387 93.7729 92.0802C94.5096 92.2218 96.8364 92.2218 96.8364 92.2218Z" fill="#92E3A9" stroke="#263238" stroke-miterlimit="10"/>
<path d="M99.0262 80.574C99.0262 80.574 99.0262 78.7988 99.7571 77.9466C100.488 77.0944 104.358 75.8855 104.358 75.8855C104.358 75.8855 103.263 78.0882 101.737 79.283C100.211 80.4778 99.0262 80.574 99.0262 80.574Z" fill="#92E3A9" stroke="#263238" stroke-miterlimit="10"/>
<path d="M98.0042 82.0689C98.0042 82.0689 97.1306 81.9981 96.8394 79.7246C96.5482 77.4512 97.9343 73.2609 97.9343 73.2609C97.9343 73.2609 99.3903 76.6584 99.1748 78.8017C98.9593 80.9449 98.7351 80.8571 98.0042 82.0689Z" fill="#92E3A9" stroke="#263238" stroke-miterlimit="10"/>
<path d="M99.1721 88.1759C99.1721 88.1759 99.3177 85.1918 101.292 84.1272C102.835 83.332 104.422 82.6185 106.044 81.9897C106.044 81.9897 105.241 84.6171 104.146 85.7524C103.051 86.8877 101.953 88.2382 100.943 88.5836C100.638 88.686 100.31 88.702 99.9964 88.6299C99.6829 88.5577 99.397 88.4002 99.1721 88.1759Z" fill="#92E3A9" stroke="#263238" stroke-miterlimit="10"/>
<path d="M96.3239 83.2043C95.6766 81.7199 94.6454 80.4236 93.3303 79.4415C91.1376 77.8079 89.897 77.7428 89.897 77.7428C89.897 77.7428 90.4066 80.7241 92.1597 82.2161C93.9127 83.7082 96.3239 83.2043 96.3239 83.2043Z" fill="#92E3A9" stroke="#263238" stroke-miterlimit="10"/>
<path d="M98.077 97.2642V79.937" stroke="#263238" stroke-miterlimit="10"/>
<path d="M98.1498 93.2892L94.3525 89.9511" stroke="#263238" stroke-miterlimit="10"/>
<path d="M98.2225 89.2405L102.314 85.6193" stroke="#263238" stroke-miterlimit="10"/>
<path d="M98.0769 84.5519L93.3303 81.2167" stroke="#263238" stroke-miterlimit="10"/>
<path d="M98.2225 81.3583L100.634 79.0848" stroke="#263238" stroke-miterlimit="10"/>
<path d="M91.8306 98.9007C91.8306 98.9007 97.0198 96.5196 98.1031 96.4488C99.1863 96.3781 104.445 98.9771 104.445 98.9771L91.8306 98.9007Z" fill="#263238" stroke="#263238" stroke-miterlimit="10"/>
<path d="M20.6436 92.2218C20.6436 92.2218 20.2796 90.305 18.9633 89.0281C17.6471 87.7512 16.0513 87.6125 14.8865 87.2529C14.0449 86.9494 13.2585 86.5175 12.5569 85.9732C12.5569 85.9732 13.9459 89.0876 14.8224 90.1635C15.699 91.2393 16.8609 91.9387 17.5976 92.0802C18.3343 92.2218 20.6436 92.2218 20.6436 92.2218Z" fill="#92E3A9" stroke="#263238" stroke-miterlimit="10"/>
<path d="M22.8362 80.574C22.8362 80.574 22.8362 78.7988 23.5642 77.9466C24.2923 77.0944 28.1682 75.8855 28.1682 75.8855C28.1682 75.8855 27.0703 78.0882 25.5473 79.283C24.0243 80.4778 22.8362 80.574 22.8362 80.574Z" fill="#92E3A9" stroke="#263238" stroke-miterlimit="10"/>
<path d="M21.811 82.0689C21.811 82.0689 20.9374 81.9981 20.6462 79.7246C20.355 77.4512 21.7411 73.2609 21.7411 73.2609C21.7411 73.2609 23.1972 76.6584 22.9846 78.8017C22.772 80.9449 22.542 80.8571 21.811 82.0689Z" fill="#92E3A9" stroke="#263238" stroke-miterlimit="10"/>
<path d="M22.9818 88.1759C22.9818 88.1759 23.1274 85.1918 25.0989 84.1272C26.6412 83.332 28.2267 82.6184 29.8484 81.9897C29.8484 81.9897 29.0446 84.6171 27.9468 85.7524C26.849 86.8877 25.757 88.2382 24.7436 88.5836C24.4403 88.6843 24.1139 88.6994 23.8021 88.6272C23.4903 88.5551 23.206 88.3986 22.9818 88.1759Z" fill="#92E3A9" stroke="#263238" stroke-miterlimit="10"/>
<path d="M20.1397 83.2043C19.4907 81.7185 18.4562 80.422 17.1374 79.4415C14.9475 77.8079 13.7041 77.7428 13.7041 77.7428C13.7041 77.7428 14.2166 80.7241 15.9697 82.2161C17.7227 83.7082 20.1397 83.2043 20.1397 83.2043Z" fill="#92E3A9" stroke="#263238" stroke-miterlimit="10"/>
<path d="M21.8867 97.2642V79.937" stroke="#263238" stroke-miterlimit="10"/>
<path d="M21.9598 93.2892L18.1596 89.9511" stroke="#263238" stroke-miterlimit="10"/>
<path d="M22.0326 89.2405L26.1211 85.6193" stroke="#263238" stroke-miterlimit="10"/>
<path d="M21.8867 84.5519L17.1371 81.2167" stroke="#263238" stroke-miterlimit="10"/>
<path d="M22.0326 81.3583L24.4408 79.0848" stroke="#263238" stroke-miterlimit="10"/>
<path d="M15.6377 98.9007C15.6377 98.9007 20.8298 96.5196 21.9102 96.4488C22.9906 96.3781 28.2555 98.9771 28.2555 98.9771L15.6377 98.9007Z" fill="#263238" stroke="#263238" stroke-miterlimit="10"/>
<path d="M118.464 98.963H0" stroke="#263238" stroke-miterlimit="10"/>
<path d="M79.271 31.8766C79.271 31.8766 80.465 30.9083 80.564 28.1026C80.663 25.2968 77.6782 23.3631 77.6782 23.3631C77.6782 23.3631 78.0771 21.4293 77.7772 19.8835C77.4772 18.3376 74.3031 17.0664 74.3031 17.0664C74.4672 15.9679 74.3988 14.8484 74.1022 13.7765C73.6042 12.2306 71.3183 11.7464 71.3183 11.7464C66.7144 5.51771 61.3767 7.16549 60.4244 7.52789C59.4722 7.16549 54.1345 5.51488 49.5305 11.7464C49.5305 11.7464 47.2417 12.2306 46.7437 13.7765C46.449 14.8487 46.3816 15.968 46.5457 17.0664C46.5457 17.0664 43.3629 18.3234 43.0513 19.8721C42.7397 21.4208 43.1503 23.3517 43.1503 23.3517C43.1503 23.3517 40.1684 25.2883 40.2674 28.0912C40.3664 30.8942 41.5662 31.8766 41.5662 31.8766C41.5662 31.8766 39.7753 32.9412 39.7753 34.2945C39.7753 35.6478 41.4672 37.7769 42.9581 38.162C44.3675 38.5272 58.8024 38.2044 60.4302 38.162C62.0435 38.1988 76.4813 38.5215 77.8878 38.162C79.3817 37.7769 81.0736 35.6478 81.0736 34.2945C81.0736 32.9412 79.271 31.8766 79.271 31.8766Z" fill="#263238" stroke="#263238" stroke-miterlimit="10"/>
<path d="M53.9191 29.6116C53.9191 29.6116 44.3502 34.5804 42.8156 36.5C41.2809 38.4196 46.1761 59.0112 46.31 59.7898C46.444 60.5684 46.7497 62.9863 56.0973 63.697C65.4449 64.4076 69.976 62.4908 70.6341 61.7802C71.0249 61.3557 71.439 60.9521 71.8747 60.5713C71.8747 60.5713 79.3236 38.1308 78.3743 36.5057C77.425 34.8805 71.0709 31.1773 69.0995 30.2543C67.1281 29.3313 66.2515 29.2605 66.2515 29.2605L53.9191 29.6116Z" fill="#92E3A9"/>
<path opacity="0.3" d="M53.9191 29.6116C53.9191 29.6116 44.3502 34.5804 42.8156 36.5C41.2809 38.4196 46.1761 59.0112 46.31 59.7898C46.444 60.5684 46.7497 62.9863 56.0973 63.697C65.4449 64.4076 69.976 62.4908 70.6341 61.7802C71.0249 61.3557 71.439 60.9521 71.8747 60.5713C71.8747 60.5713 79.3236 38.1308 78.3743 36.5057C77.425 34.8805 71.0709 31.1773 69.0995 30.2543C67.1281 29.3313 66.2515 29.2605 66.2515 29.2605L53.9191 29.6116Z" fill="white"/>
<path opacity="0.15" d="M77.1483 42.3522V41.8879H77.5269L77.722 41.1121H77.1396V38.6348H78.2549C78.3073 38.3516 78.3481 38.094 78.3772 37.859H77.1396V36.1603H78.1005C77.0347 34.9287 73.9509 32.961 71.563 31.5935V31.9785H69.8158V31.5142H71.4291C70.9166 31.2311 70.439 30.9479 70.0226 30.7413H69.8158V30.6308C69.5246 30.4864 69.2888 30.3619 69.0907 30.2684L69.0179 30.2373V30.7441H66.4699V29.3285C66.3185 29.3002 66.2428 29.2917 66.2428 29.2917L65.6604 29.3086V30.7441H65.1828V29.3086L60.8817 29.4332V30.7441H59.1345V29.4813L58.3395 29.504V30.7441H55.7886V29.5776L54.9936 29.6003V30.7328H54.5161V29.6003L53.9191 29.6116C53.9191 29.6116 52.2738 30.461 50.2383 31.5935V31.9502H49.6035C46.8516 33.5074 43.6484 35.4496 42.8155 36.4802C42.0672 37.4145 42.8505 42.8052 43.8668 48.1676V46.5H44.3444V48.1987H43.8726L44.0211 48.9716H44.3444V50.6081C44.8219 52.9807 45.3053 55.2061 45.6752 56.8708H47.6903V58.5696H46.0566C46.1294 58.8867 46.1877 59.1358 46.2314 59.3453H47.6874V61.6896C48.3156 62.0801 48.9954 62.3859 49.7083 62.5984H50.2354V62.7542C52.1565 63.246 54.123 63.5514 56.106 63.6658C61.3477 64.0622 65.0547 63.6375 67.4338 63.0628H66.4874V62.5984H69.0121C69.5698 62.4245 70.0942 62.1624 70.5642 61.8227H69.8333V59.3453H71.5805V60.8091L71.8717 60.5401C71.8717 60.5401 74.0295 54.0424 75.8757 47.7825V46.4886H76.2514C76.6766 45.0249 77.0726 43.6008 77.4162 42.3069L77.1483 42.3522ZM44.3298 42.3522H43.8522V41.8879H44.3298V42.3522ZM44.3298 41.1121H43.8522V38.6348H44.3298V41.1121ZM44.3298 37.859H43.8522V36.1603H44.3298V37.859ZM47.6757 52.7287H45.1277V52.2616H47.6757V52.7287ZM47.6757 51.4915H45.1277V49.0056H47.6757V51.4915ZM47.6757 48.2384H45.1277V46.5396H47.6757V48.2384ZM47.6757 42.3522H45.1277V41.8879H47.6757V42.3522ZM47.6757 41.1121H45.1277V38.6348H47.6757V41.1121ZM47.6757 37.859H45.1277V36.1603H47.6757V37.859ZM50.2237 61.868H48.4765V59.3906H50.2237V61.868ZM50.2237 58.6149H48.4765V56.9161H50.2237V58.6149ZM50.2237 52.7287H48.4765V52.2616H50.2237V52.7287ZM50.2237 51.4915H48.4765V49.0056H50.2237V51.4915ZM50.2237 48.2384H48.4765V46.5396H50.2237V48.2384ZM50.2237 42.3522H48.4765V41.8879H50.2237V42.3522ZM50.2237 41.1121H48.4765V38.6348H50.2237V41.1121ZM50.2237 37.859H48.4765V36.1603H50.2237V37.859ZM55.0053 63.1081H54.5277V62.6437H55.0053V63.1081ZM55.0053 61.868H54.5277V59.3906H55.0053V61.868ZM55.0053 58.6149H54.5277V56.9161H55.0053V58.6149ZM55.0053 52.7287H54.5277V52.2616H55.0053V52.7287ZM55.0053 51.4915H54.5277V49.0056H55.0053V51.4915ZM55.0053 48.2384H54.5277V46.5396H55.0053V48.2384ZM55.0053 42.3522H54.5277V41.8879H55.0053V42.3522ZM55.0053 41.1121H54.5277V38.6348H55.0053V41.1121ZM55.0053 37.859H54.5277V36.1603H55.0053V37.859ZM55.0053 31.9728H54.5277V31.5085H55.0053V31.9728ZM58.3512 63.1166H55.8003V62.6522H58.3512V63.1166ZM58.3512 61.8765H55.8003V59.3991H58.3512V61.8765ZM58.3512 58.6234H55.8003V56.9246H58.3512V58.6234ZM58.3512 52.7372H55.8003V52.2616H58.3512V52.7372ZM58.3512 51.5H55.8003V49.0056H58.3512V51.5ZM58.3512 48.2469H55.8003V46.5481H58.3512V48.2469ZM58.3512 42.3607H55.8003V41.8964H58.3512V42.3607ZM58.3512 41.1206H55.8003V38.6433H58.3512V41.1206ZM58.3512 37.8675H55.8003V36.1688H58.3512V37.8675ZM58.3512 31.9813H55.8003V31.517H58.3512V31.9813ZM60.8992 63.125H59.152V62.6607H60.8992V63.125ZM60.8992 61.885H59.152V59.4076H60.8992V61.885ZM60.8992 58.6319H59.152V56.9331H60.8992V58.6319ZM60.8992 52.7457H59.152V52.2616H60.8992V52.7457ZM60.8992 51.5084H59.152V49.0056H60.8992V51.5084ZM60.8992 48.2553H59.152V46.5566H60.8992V48.2553ZM60.9079 42.3522H59.1607V41.8879H60.9079V42.3522ZM60.9079 41.1121H59.1607V38.6348H60.9079V41.1121ZM60.9079 37.859H59.1607V36.1603H60.9079V37.859ZM60.9079 31.9728H59.1607V31.5085H60.9079V31.9728ZM65.6866 63.1166H65.209V62.6522H65.6866V63.1166ZM65.6866 61.8765H65.209V59.3991H65.6866V61.8765ZM65.6866 58.6234H65.209V56.9246H65.6866V58.6234ZM65.6866 52.7372H65.209V52.2616H65.6866V52.7372ZM65.6866 51.5H65.209V49.0056H65.6866V51.5ZM65.6866 48.2469H65.209V46.5481H65.6866V48.2469ZM65.6866 42.3607H65.209V41.8964H65.6866V42.3607ZM65.6866 41.1206H65.209V38.6433H65.6866V41.1206ZM65.6866 37.8675H65.209V36.1688H65.6866V37.8675ZM65.6866 31.9813H65.209V31.517H65.6866V31.9813ZM69.0325 61.8765H66.4845V59.3991H69.0325V61.8765ZM69.0325 58.6234H66.4845V56.9246H69.0325V58.6234ZM69.0325 52.7372H66.4845V52.2616H69.0325V52.7372ZM69.0325 51.5H66.4845V49.0056H69.0325V51.5ZM69.0325 48.2469H66.4845V46.5481H69.0325V48.2469ZM69.0325 42.3607H66.4845V41.8964H69.0325V42.3607ZM69.0325 41.1206H66.4845V38.6433H69.0325V41.1206ZM69.0325 37.8675H66.4845V36.1688H69.0325V37.8675ZM69.0325 31.9813H66.4845V31.517H69.0325V31.9813ZM71.5805 58.6234H69.8333V56.9246H71.5805V58.6234ZM71.5805 52.7372H69.8333V52.2616H71.5805V52.7372ZM71.5805 51.5H69.8333V49.0056H71.5805V51.5ZM71.5805 48.2469H69.8333V46.5481H71.5805V48.2469ZM71.5805 42.3607H69.8333V41.8964H71.5805V42.3607ZM71.5805 41.1206H69.8333V38.6433H71.5805V41.1206ZM71.5805 37.8675H69.8333V36.1688H71.5805V37.8675ZM76.3417 42.3522H75.8757V41.8879H76.3417V42.3522ZM76.3417 41.1121H75.8757V38.6348H76.3417V41.1121ZM76.3417 37.859H75.8757V36.1603H76.3417V37.859Z" fill="#36434D"/>
<path d="M53.9191 29.6116C53.9191 29.6116 44.3502 34.5804 42.8156 36.5C41.2809 38.4196 46.1761 59.0112 46.31 59.7898C46.444 60.5684 46.7497 62.9863 56.0973 63.697C65.4449 64.4076 69.976 62.4908 70.6341 61.7802C71.0249 61.3557 71.439 60.9521 71.8747 60.5713C71.8747 60.5713 79.3236 38.1308 78.3743 36.5057C77.425 34.8805 71.0709 31.1773 69.0995 30.2543C67.1281 29.3313 66.2515 29.2605 66.2515 29.2605L53.9191 29.6116Z" stroke="#263238" stroke-miterlimit="10"/>
<path d="M42.2477 84.6765C42.2477 84.6765 40.6286 84.8464 39.7696 85.5599C38.9105 86.2733 38.2845 88.7705 38.2845 88.7705L34.892 96.0015C34.2804 97.3124 34.6473 98.5015 35.0143 98.6204C35.3812 98.7393 37.0964 98.7393 37.0964 98.7393H43.4853C43.669 98.3904 43.7274 97.9918 43.6513 97.6068C43.43 96.8594 42.7399 96.0355 43.0951 95.4154C43.7066 94.3452 46.1149 90.5117 45.1335 87.655C44.1522 84.7983 42.2477 84.6765 42.2477 84.6765Z" fill="#263238" stroke="#263238" stroke-miterlimit="10"/>
<path d="M76.6475 84.6765C76.6475 84.6765 78.2666 84.8464 79.1227 85.5599C79.9788 86.2733 80.6107 88.7847 80.6107 88.7847C80.6107 88.7847 83.3888 94.7076 84.0003 96.0157C84.6119 97.3237 84.2479 98.5157 83.878 98.6346C83.5082 98.7535 81.7988 98.7535 81.7988 98.7535H75.4099C75.2262 98.4045 75.1678 98.0059 75.2439 97.621C75.4652 96.8735 76.1524 96.0496 75.8001 95.4296C75.1856 94.3594 72.7803 90.5259 73.7617 87.6691C74.743 84.8124 76.6475 84.6765 76.6475 84.6765Z" fill="#263238" stroke="#263238" stroke-miterlimit="10"/>
<path d="M44.8917 98.9601H74.3585C74.5973 98.5185 77.7131 93.7648 77.9053 88.0485C78.0087 83.907 77.677 79.7661 76.9153 75.6901L41.5604 78.83C41.5604 78.83 40.7567 83.0202 41.342 88.7733C41.8953 94.232 44.0938 98.2608 44.8917 98.9601Z" fill="#A1A1A1" stroke="#263238" stroke-miterlimit="10"/>
<path d="M48.7181 32.389L51.4933 59.586L46.834 58.0231C46.834 58.0231 42.4515 73.1505 41.6477 78.1929C40.844 83.2354 42.5213 89.198 44.9354 92.536C47.3495 95.8741 54.7227 98.2891 59.6877 98.006C64.6527 97.7229 69.1838 96.3724 71.8862 92.7512C74.5885 89.13 76.7813 84.0876 76.9997 76.7717C77.2181 69.4557 72.9811 58.5922 72.9811 58.5922L68.0307 59.6568L73.546 32.7769L71.7988 31.6444L69.9293 43.6121C69.9293 43.6121 67.2269 44.3935 60.8729 44.3935C54.5189 44.3935 51.4496 42.6948 51.4496 42.6948L50.2848 31.6161L48.7181 32.389Z" fill="white" stroke="#263238" stroke-miterlimit="10"/>
<path d="M49.953 62.3153C49.953 62.3153 55.215 64.6964 59.0123 65.4127" stroke="#263238" stroke-miterlimit="10"/>
<path d="M69.1722 64.8153C65.1983 67.0211 60.492 67.62 56.0681 66.4829" stroke="#263238" stroke-miterlimit="10"/>
<path d="M59.9906 65.4127C61.0763 65.5273 62.174 65.3622 63.1734 64.9342" stroke="#263238" stroke-miterlimit="10"/>
<path d="M58.8696 83.5185C58.8696 83.5185 58.5056 81.6017 57.1923 80.322C55.8789 79.0423 54.2802 78.9064 53.1009 78.5468C52.2594 78.2445 51.4729 77.8134 50.7712 77.2699C50.7712 77.2699 52.1603 80.3843 53.0368 81.4574C53.9133 82.5304 55.0752 83.2354 55.812 83.3769C56.5487 83.5185 58.8696 83.5185 58.8696 83.5185Z" fill="#92E3A9" stroke="#263238" stroke-miterlimit="10"/>
<path d="M61.0623 71.8708C61.0623 71.8708 61.0623 70.0956 61.7932 69.2434C62.5242 68.3912 66.3942 67.1851 66.3942 67.1851C66.3942 67.1851 65.2993 69.3878 63.7734 70.5826C62.2475 71.7773 61.0623 71.8708 61.0623 71.8708Z" fill="#92E3A9" stroke="#263238" stroke-miterlimit="10"/>
<path d="M60.0342 73.3628C60.0342 73.3628 59.1606 73.292 58.8694 71.0186C58.5782 68.7451 59.9673 64.5576 59.9673 64.5576C59.9673 64.5576 61.4233 67.9551 61.2078 70.0956C60.9923 72.236 60.771 72.1567 60.0342 73.3628Z" fill="#92E3A9" stroke="#263238" stroke-miterlimit="10"/>
<path d="M61.1991 79.4698C61.1991 79.4698 61.3447 76.4885 63.3161 75.424C64.8586 74.6305 66.4441 73.9188 68.0656 73.2921C68.0656 73.2921 67.2619 75.9195 66.167 77.0548C65.0721 78.1901 63.9743 79.5406 62.9638 79.886C62.6592 79.9855 62.3319 79.9992 62.0196 79.9256C61.7074 79.8519 61.4229 79.694 61.1991 79.4698Z" fill="#92E3A9" stroke="#263238" stroke-miterlimit="10"/>
<path d="M58.3597 74.4982C57.715 73.0148 56.6868 71.7186 55.3749 70.7354C53.1822 69.1018 51.9417 69.0367 51.9417 69.0367C51.9417 69.0367 52.4513 72.0208 54.2043 73.51C55.9573 74.9993 58.3597 74.4982 58.3597 74.4982Z" fill="#92E3A9" stroke="#263238" stroke-miterlimit="10"/>
<path d="M60.1131 88.561V71.2338" stroke="#263238" stroke-miterlimit="10"/>
<path d="M60.1856 84.5831L56.3883 81.245" stroke="#263238" stroke-miterlimit="10"/>
<path d="M60.2584 80.5344L64.3498 76.9132" stroke="#263238" stroke-miterlimit="10"/>
<path d="M60.113 75.8487L55.3664 72.5106" stroke="#263238" stroke-miterlimit="10"/>
<path d="M60.2584 72.6522L62.6695 70.3815" stroke="#263238" stroke-miterlimit="10"/>
<path d="M77.1336 99.3508C77.1336 99.3508 68.2111 93.4902 67.2123 92.3237C66.2135 91.1572 64.5333 89.8237 63.0336 89.2405C61.5339 88.6572 60.4331 87.8786 57.5328 89.2405C54.6324 90.6023 54.3849 92.4596 53.7471 92.8928L44.1316 99.5434L41.2196 100.614C41.2196 100.614 45.6197 100.418 46.7204 100.223C47.8212 100.028 50.4187 100.03 50.4187 100.03C50.4187 100.03 47.7192 101.197 49.2189 101.293C50.7186 101.389 53.52 100.322 54.2189 100.223C54.9178 100.124 55.4186 100.127 57.821 100.806C60.2235 101.486 60.6195 101.78 60.9194 101.585C61.2857 101.258 61.621 100.9 61.9212 100.514C61.9212 100.514 60.2205 100.798 65.3195 101.389C70.4185 101.981 70.2263 100.517 70.2263 100.517C70.2263 100.517 72.0259 100.517 73.7207 100.421C75.4155 100.325 76.2221 100.908 77.9227 100.908C79.6234 100.908 77.1336 99.3508 77.1336 99.3508Z" fill="#263238" stroke="#263238" stroke-miterlimit="10"/>
<path d="M63.0336 38.7084L62.0115 59.2321L66.9037 58.7338L67.7773 34.1642C67.7773 34.1642 66.0272 38.2837 63.0336 38.7084Z" fill="#A1A1A1" stroke="#263238" stroke-miterlimit="10"/>
<path d="M54.0502 28.196C54.0502 28.196 53.0281 29.119 53.1009 29.6116C53.1737 30.1042 52.5185 30.393 52.8825 31.6699C53.2465 32.9468 56.7525 40.2627 57.7019 40.9026C58.6512 41.5425 61.2807 42.3182 62.597 41.3981C63.9132 40.4779 67.6348 35.7894 68.0745 33.3743C68.5142 30.9593 68.7326 29.6116 67.4164 28.0487L66.103 26.4972C66.103 26.4972 65.6633 28.9123 61.9389 30.1184C58.2144 31.3245 54.0502 28.196 54.0502 28.196Z" fill="#A1A1A1" stroke="#263238" stroke-miterlimit="10"/>
<path d="M55.9576 30.461C55.9576 30.461 60.049 37.6325 61.144 37.0634C62.2389 36.4944 64.286 29.8211 64.286 29.8211L55.9576 30.461Z" fill="white" stroke="#263238" stroke-miterlimit="10"/>
<path d="M61.1351 37.0748C61.1351 37.0748 59.1636 37.9978 58.1415 37.9978C57.1194 37.9978 55.2295 35.1665 54.3413 33.7367" stroke="#263238" stroke-miterlimit="10"/>
<path d="M66.7581 27.3466C66.7581 27.3466 67.489 29.8947 66.9037 32.3891C66.3184 34.8834 65.3719 37.4315 63.4092 38.1393" stroke="#263238" stroke-miterlimit="10"/>
<path d="M69.012 19.4644C69.012 19.4644 69.1081 17.4825 70.3166 18.1762C71.5251 18.8699 70.1332 22.0069 69.5129 22.7062C69.0972 23.1652 68.605 23.5529 68.0569 23.8529L68.6801 20.0193L69.012 19.4644Z" fill="white" stroke="#263238" stroke-miterlimit="10"/>
<path d="M50.7714 18.6745C50.7714 18.6745 51.7119 25.0816 52.3701 26.5652C53.0282 28.0488 55.8645 31.5425 57.999 32.5108C58.7308 32.8705 59.5514 33.0246 60.3684 32.9555C61.1853 32.8865 61.9663 32.5972 62.6233 32.1201C63.4561 31.5538 65.7741 28.9774 67.0467 26.8398C68.3192 24.7022 68.7939 18.1054 68.7939 18.1054L68.2872 13.431C68.2872 13.431 58.0456 7.48542 55.9111 7.76854C53.7766 8.05167 49.822 15.7555 50.0696 16.6756C50.2608 17.3554 50.4952 18.0229 50.7714 18.6745Z" fill="white" stroke="#263238" stroke-miterlimit="10"/>
<path d="M58.8053 26.418C58.8053 26.418 59.7837 27.3324 61.5077 26.4689" stroke="#263238" stroke-miterlimit="10"/>
<path d="M57.9727 28.4791C57.9727 28.4791 59.8771 29.9542 62.3727 28.2328" stroke="#263238" stroke-miterlimit="10"/>
<path d="M53.7094 19.8608C53.7094 19.8608 55.4566 18.7113 57.2446 19.337" stroke="#263238" stroke-miterlimit="10"/>
<path d="M62.2125 19.4418C62.2125 19.4418 64.5188 18.6462 65.7622 20.1241" stroke="#263238" stroke-miterlimit="10"/>
<path d="M56.3096 22.0748C56.2863 22.525 56.0417 22.8902 55.7563 22.8931C55.471 22.8959 55.2642 22.5307 55.2846 22.0805C55.305 21.6303 55.5525 21.2651 55.8379 21.2623C56.1232 21.2594 56.33 21.6247 56.3096 22.0748Z" fill="#263238"/>
<path d="M64.0616 22.0182C64.0413 22.4684 63.7937 22.8336 63.5113 22.8364C63.2288 22.8393 63.0162 22.474 63.0395 22.0239C63.0628 21.5737 63.3074 21.2085 63.5899 21.2056C63.8724 21.2028 64.0849 21.5652 64.0616 22.0182Z" fill="#263238"/>
<path d="M57.1485 10.7583C57.1485 10.7583 56.6621 11.7549 55.9836 13.3886C55.3051 15.0222 53.6307 16.67 52.6639 17.0296C52.0388 17.2573 51.3935 17.4288 50.7362 17.542C50.7362 17.542 51.3419 18.6745 50.7566 18.6745C50.1713 18.6745 49.6558 17.1938 49.6558 17.1938C49.6558 17.1938 47.7019 12.2448 48.9191 8.26402C49.267 7.11082 49.8867 6.05235 50.7288 5.17263C51.5709 4.29291 52.6124 3.61615 53.7705 3.19609C53.7705 3.19609 55.6575 0.486586 60.9661 1.08681C66.2747 1.68703 68.9509 3.79348 70.8088 9.23797C72.6666 14.6825 69.8886 17.6836 69.5042 18.0403C69.1198 18.397 69.3731 19.2493 68.9975 19.4559C68.6218 19.6626 68.1646 18.5386 68.1646 18.5386C66.4693 18.0242 64.8604 17.2717 63.3889 16.3048C61.2661 14.8325 58.7908 11.5879 58.2376 10.8829C57.6843 10.1779 57.1485 10.7583 57.1485 10.7583Z" fill="#263238" stroke="#263238" stroke-miterlimit="10"/>
<path d="M50.7713 18.6745C50.7713 18.6745 49.9472 17.542 49.3153 18.5442C48.6834 19.5465 48.9688 21.1716 49.5774 22.1597C50.186 23.1478 51.6391 23.7962 51.6391 23.7962L50.7713 18.6745Z" fill="white" stroke="#263238" stroke-miterlimit="10"/>
<path d="M48.1328 33.0997C48.1328 33.0997 38.858 38.2129 38.3455 40.5544C37.833 42.8958 40.2471 57.0294 40.2471 57.0294L40.1714 67.9665C40.1714 67.9665 42.7922 66.616 44.9937 66.616C47.1952 66.616 48.7181 66.6868 48.7181 66.6868C48.7181 66.6868 47.3291 57.5985 47.3291 57.3153C47.3291 57.0322 47.4048 41.9049 47.4048 41.9049" fill="#92E3A9"/>
<path opacity="0.3" d="M48.1328 33.0997C48.1328 33.0997 38.858 38.2129 38.3455 40.5544C37.833 42.8958 40.2471 57.0294 40.2471 57.0294L40.1714 67.9665C40.1714 67.9665 42.7922 66.616 44.9937 66.616C47.1952 66.616 48.7181 66.6868 48.7181 66.6868C48.7181 66.6868 47.3291 57.5985 47.3291 57.3153C47.3291 57.0322 47.4048 41.9049 47.4048 41.9049" fill="white"/>
<path opacity="0.15" d="M47.6757 59.77V61.8623H45.1277V59.385H47.6174C47.5767 59.1018 47.5388 58.8442 47.5068 58.6092H45.1277V56.9105H47.3321C47.3321 56.1942 47.3321 54.6115 47.3524 52.7287H45.1277V52.2616H47.3554C47.3554 52.0067 47.3554 51.7491 47.3554 51.4886H45.1247V49.0056H47.367C47.367 48.748 47.367 48.4875 47.367 48.2327H45.1218V46.5339H47.3757C47.3757 44.6625 47.3932 43.0855 47.3961 42.3522H45.1218V41.8879H47.399L47.4631 41.1121H45.1335V38.6348H47.6815L48.1387 33.1053C48.1387 33.1053 42.1865 36.3868 39.5569 38.8981V41.1121H38.2902C38.2902 41.3358 38.2902 41.5963 38.2902 41.8879H39.5599V42.3522H38.3048C38.3601 43.4847 38.5057 44.9513 38.6979 46.5339H39.5715V48.2327H38.928L39.0328 49.0056H39.5715V51.4858H39.3589C39.3968 51.7463 39.4376 52.0067 39.4754 52.2587H39.5424V52.7004C39.921 55.1749 40.2384 57.0294 40.2384 57.0294L40.1627 67.9665C40.1627 67.9665 42.7835 66.616 44.985 66.616C47.1865 66.616 48.7094 66.6868 48.7094 66.6868C48.7094 66.6868 48.095 62.5503 47.6757 59.77ZM45.1277 36.1489H47.6757V37.8477H45.1277V36.1489ZM44.3298 63.1024H43.8522V62.6381H44.3298V63.1024ZM44.3298 61.8623H43.8522V59.385H44.3298V61.8623ZM44.3298 58.6092H43.8522V56.9105H44.3298V58.6092ZM44.3298 52.7231H43.8522V52.2616H44.3298V52.7231ZM44.3298 51.4858H43.8522V49.0056H44.3298V51.4858ZM44.3298 48.2327H43.8522V46.5339H44.3298V48.2327ZM44.3298 42.3465H43.8522V41.8822H44.3298V42.3465ZM44.3298 41.1065H43.8522V38.6291H44.3298V41.1065ZM44.3298 37.8533H43.8522V36.1546H44.3298V37.8533ZM47.6757 63.1024H45.1277V62.6381H47.6757V63.1024Z" fill="#36434D"/>
<path d="M48.1328 33.0997C48.1328 33.0997 38.858 38.2129 38.3455 40.5544C37.833 42.8958 40.2471 57.0294 40.2471 57.0294L40.1714 67.9665C40.1714 67.9665 42.7922 66.616 44.9937 66.616C47.1952 66.616 48.7181 66.6868 48.7181 66.6868C48.7181 66.6868 47.3291 57.5985 47.3291 57.3153C47.3291 57.0322 47.4048 41.9049 47.4048 41.9049" stroke="#263238" stroke-miterlimit="10"/>
<path d="M43.6045 64.4161C43.6045 64.4161 40.6925 65.8317 39.88 66.616C39.0676 67.4002 38.8579 67.6834 39.0763 67.9665C39.2947 68.2496 39.7344 72.7796 40.3197 73.2921C40.9051 73.8045 42.8008 74.6426 45.9428 73.646C49.0849 72.6494 49.8857 71.5877 50.0197 70.877C50.1536 70.1664 49.7984 69.6001 49.4373 67.4795C49.0762 65.3589 48.1327 63.5639 43.6045 64.4161Z" fill="#A1A1A1" stroke="#263238" stroke-miterlimit="10"/>
<path d="M48.5725 70.7354C48.5725 70.7354 47.2563 70.3108 44.7024 70.5939C42.1486 70.877 41.7059 72.2275 41.7059 72.2275C41.7059 72.2275 45.9429 83.4477 46.8922 85.5061C47.8416 87.5644 46.601 90.4069 46.4554 91.1884C46.3098 91.9698 46.3069 94.668 46.3069 94.668C46.3069 94.668 47.4048 97.2954 47.329 98.1476C47.2533 98.9998 48.2027 98.8582 48.2813 98.2183C48.3599 97.5785 47.6989 95.3871 47.6989 95.3871C47.6989 95.3871 50.6109 97.6521 50.838 97.8701C51.0652 98.0881 51.9359 97.8701 51.4962 97.2331C51.0686 96.6617 50.6057 96.1162 50.11 95.5994C50.11 95.5994 51.9359 96.8763 52.4396 96.7319C52.5043 96.7225 52.566 96.6996 52.6207 96.6649C52.6754 96.6301 52.7218 96.5843 52.7566 96.5306C52.7914 96.4768 52.8139 96.4164 52.8225 96.3534C52.8312 96.2905 52.8257 96.2264 52.8066 96.1657C52.8066 96.1657 53.5346 96.1657 53.6103 95.5994C53.686 95.0332 52.5852 92.8305 52.5124 92.3322C52.4396 91.8339 53.3861 89.9171 53.3861 89.9171C53.3861 89.9171 55.2847 91.2676 55.87 91.3328C56.4553 91.3979 58.0628 90.9052 57.6959 90.2003C57.3289 89.4953 56.6737 89.702 55.506 88.7846C54.5373 88.0722 53.412 87.5876 52.2183 87.369C51.7058 87.2982 51.0535 86.5196 51.0535 86.5196L48.5725 70.7354Z" fill="white" stroke="#263238" stroke-miterlimit="10"/>
<path d="M50.9836 90.0502L50.1071 91.9698L52.8094 96.1572" stroke="#263238" stroke-miterlimit="10"/>
<path d="M49.1579 91.6838C49.1579 91.6838 47.9145 94.0989 48.4998 94.232C49.0851 94.365 50.1072 95.5825 50.1072 95.5825" stroke="#263238" stroke-miterlimit="10"/>
<path d="M47.769 92.3945C47.769 92.3945 46.6042 93.6742 46.8954 94.1697C47.1866 94.6651 47.6991 95.3786 47.6991 95.3786" stroke="#263238" stroke-miterlimit="10"/>
<path d="M47.3292 57.3153L44.3356 49.3595" stroke="#263238" stroke-miterlimit="10"/>
<path d="M74.2158 33.2752C74.2158 33.2752 81.7667 36.9332 82.2792 39.2775C82.7918 41.6218 79.4837 57.0294 79.4837 57.0294L79.5565 67.9665C79.5565 67.9665 76.9357 66.616 74.7342 66.616C72.5327 66.616 71.0097 66.6868 71.0097 66.6868C71.0097 66.6868 72.3987 57.5985 72.3987 57.3153C72.3987 57.0322 72.3259 41.9049 72.3259 41.9049" fill="#92E3A9"/>
<path opacity="0.3" d="M74.2158 33.2752C74.2158 33.2752 81.7667 36.9332 82.2792 39.2775C82.7918 41.6218 79.4837 57.0294 79.4837 57.0294L79.5565 67.9665C79.5565 67.9665 76.9357 66.616 74.7342 66.616C72.5327 66.616 71.0097 66.6868 71.0097 66.6868C71.0097 66.6868 72.3987 57.5985 72.3987 57.3153C72.3987 57.0322 72.3259 41.9049 72.3259 41.9049" fill="white"/>
<path opacity="0.15" d="M82.2472 39.1756V41.1065H80.5V38.6291H81.991C81.8053 38.3499 81.5907 38.0899 81.3503 37.8534H80.5V37.0946C80.2496 36.8907 79.9817 36.6869 79.705 36.4887V37.8534H77.1541V36.1546H79.2217C77.6196 35.0942 75.9496 34.1343 74.2217 33.2809L72.3318 41.9105C72.3318 41.9105 72.4046 57.0351 72.4046 57.321C72.4046 57.4796 71.9649 60.4354 71.5776 62.9835V63.1081H71.5601C71.2689 65.0305 71.0156 66.6924 71.0156 66.6924C71.0156 66.6924 72.5502 66.6217 74.74 66.6217C75.8388 66.668 76.9217 66.8939 77.9433 67.2898H79.5449L79.5187 63.1081H77.1425V62.6438H79.5158V61.868H77.1483V59.3906H79.4983V58.6149H77.1541V56.9161H79.5158C79.6293 56.3867 80.0982 54.1868 80.6136 51.4971H80.5V49.0056H81.0824C81.129 48.748 81.1785 48.4903 81.2251 48.2327H80.5V46.534H81.5221C81.7784 45.0249 82.0026 43.5725 82.1511 42.3522H80.5V41.8879H82.2065C82.3375 40.6704 82.3812 39.7333 82.2851 39.2831C82.2705 39.2378 82.256 39.2095 82.2472 39.1756ZM76.3417 63.1024H75.8757V62.6381H76.3417V63.1024ZM76.3417 61.8623H75.8757V59.385H76.3417V61.8623ZM76.3417 58.6092H75.8757V56.9105H76.3417V58.6092ZM76.3417 52.7231H75.8757V52.2616H76.3417V52.7231ZM76.3417 51.4858H75.8757V49.0056H76.3417V51.4858ZM76.3417 48.2327H75.8757V46.534H76.3417V48.2327ZM76.3417 42.3522H75.8757V41.8879H76.3417V42.3522ZM76.3417 41.1121H75.8757V38.6348H76.3417V41.1121ZM76.3417 37.859H75.8757V36.1603H76.3417V37.859ZM79.6876 52.7287H77.1366V52.2616H79.6876V52.7287ZM79.6876 51.4915H77.1366V49.0056H79.6876V51.4915ZM79.6876 48.2384H77.1366V46.5396H79.6876V48.2384ZM79.6876 42.3522H77.1366V41.8879H79.6876V42.3522ZM79.6876 41.1121H77.1366V38.6348H79.6876V41.1121Z" fill="#36434D"/>
<path d="M74.2158 33.2752C74.2158 33.2752 81.7667 36.9332 82.2792 39.2775C82.7918 41.6218 79.4837 57.0294 79.4837 57.0294L79.5565 67.9665C79.5565 67.9665 76.9357 66.616 74.7342 66.616C72.5327 66.616 71.0097 66.6868 71.0097 66.6868C71.0097 66.6868 72.3987 57.5985 72.3987 57.3153C72.3987 57.0322 72.3259 41.9049 72.3259 41.9049" stroke="#263238" stroke-miterlimit="10"/>
<path d="M76.1233 64.4161C76.1233 64.4161 77.9055 64.6143 79.8478 66.616C80.6282 67.4201 80.8699 67.6834 80.6515 67.9665C80.4331 68.2496 79.9934 72.7796 79.411 73.2921C78.8286 73.8045 76.927 74.6426 73.785 73.646C70.6429 72.6494 69.8421 71.5877 69.7081 70.877C69.5742 70.1664 69.9265 69.6001 70.2905 67.4795C70.6545 65.3589 71.5951 63.5639 76.1233 64.4161Z" fill="#A1A1A1" stroke="#263238" stroke-miterlimit="10"/>
<path d="M71.1552 70.7354C71.1552 70.7354 72.4715 70.3108 75.0282 70.5939C77.585 70.877 78.0218 72.2275 78.0218 72.2275C78.0218 72.2275 73.7848 83.4477 72.8355 85.5061C71.8861 87.5644 73.1267 90.4069 73.2752 91.1884C73.4237 91.9698 73.4208 94.668 73.4208 94.668C73.4208 94.668 72.3259 97.2954 72.3987 98.1476C72.4715 98.9998 71.5251 98.8582 71.4494 98.2183C71.3736 97.5785 72.0318 95.3871 72.0318 95.3871C72.0318 95.3871 69.1197 97.6521 68.8926 97.8701C68.6655 98.0881 67.7977 97.8701 68.2345 97.2331C68.6636 96.6621 69.1275 96.1166 69.6235 95.5994C69.6235 95.5994 67.7977 96.8763 67.2939 96.7319C67.2293 96.7226 67.1676 96.6997 67.113 96.665C67.0583 96.6302 67.0121 96.5843 66.9775 96.5305C66.9429 96.4766 66.9207 96.4161 66.9125 96.3532C66.9043 96.2902 66.9102 96.2262 66.9299 96.1657C66.9299 96.1657 66.199 96.1657 66.1262 95.5994C66.0534 95.0332 67.1483 92.8305 67.2211 92.3322C67.2939 91.8339 66.3475 89.9171 66.3475 89.9171C66.3475 89.9171 64.4488 91.2676 63.8635 91.3328C63.2782 91.3979 61.6737 90.9052 62.0377 90.2003C62.4017 89.4953 63.0598 89.702 64.2304 88.7846C65.1983 88.0726 66.3226 87.5881 67.5152 87.369C68.0277 87.2982 68.68 86.5196 68.68 86.5196L71.1552 70.7354Z" fill="white" stroke="#263238" stroke-miterlimit="10"/>
<path d="M68.7469 90.0502L69.6234 91.9698L66.9211 96.1572" stroke="#263238" stroke-miterlimit="10"/>
<path d="M70.573 91.6838C70.573 91.6838 71.8135 94.0989 71.2282 94.232C70.6429 94.365 69.6237 95.5825 69.6237 95.5825" stroke="#263238" stroke-miterlimit="10"/>
<path d="M71.9736 92.3945C71.9736 92.3945 73.1384 93.6742 72.8472 94.1697C72.556 94.6651 72.0435 95.3786 72.0435 95.3786" stroke="#263238" stroke-miterlimit="10"/>
<path d="M72.3989 57.3153L75.3925 49.3595" stroke="#263238" stroke-miterlimit="10"/>
</svg>
